<svg height="512pt" viewBox="0 0 512 512" width="512pt" xmlns="http://www.w3.org/2000/svg"><path d="m512 95c0-52.382812-42.617188-95-95-95h-322c-52.382812 0-95 42.617188-95 95v4.914062l81.21875 110.644532c-1.050781.789062-2.25 1.375-3.542969 1.699218-25.300781 6.355469-45.238281 25.363282-53.074219 49.742188h-24.601562v250h512v-250h-24.605469c-8.304687-25.730469-30.109375-45.140625-56.574219-50.5l81.179688-111.621094zm-108.046875 102.4375c-14.125-17.148438-35.429687-27.4375-57.953125-27.4375-7.710938 0-15.324219 1.171875-22.625 3.480469-2.390625.753906-4.863281.027343-6.164062-1.808594-14.054688-19.832031-36.9375-31.671875-61.210938-31.671875-19.726562 0-38.355469 7.601562-52.449219 21.40625-1.804687 1.765625-4.554687 2.101562-6.539062.800781-12.203125-7.984375-26.382813-12.207031-41.011719-12.207031-25.269531 0-45.96875 10.9375-59.46875 30.726562l-51.914062-70.726562h422.925781zm-308.953125-167.4375h322c30.679688 0 56.445312 21.371094 63.234375 50h-448.472656c6.792969-28.632812 32.558593-50 63.238281-50zm387 452h-452v-190h181v90h90v-90h181zm-241-190h30v60h-30zm213.675781-30h-397.378906c6.003906-10.109375 15.871094-17.675781 27.6875-20.644531 13.507813-3.394531 24.460937-13.808594 28.585937-27.175781 6.996094-22.679688 21.269532-34.179688 42.429688-34.179688 8.777344 0 17.277344 2.527344 24.578125 7.308594 13.6875 8.957031 32.175781 7.078125 43.960937-4.464844 8.457032-8.28125 19.628907-12.84375 31.460938-12.84375 14.5625 0 28.292969 7.109375 36.730469 19.019531 8.871093 12.515625 24.824219 17.769531 39.691406 13.066407 4.371094-1.386719 8.9375-2.085938 13.578125-2.085938 15.855469 0 30.71875 8.503906 38.785156 22.1875 6.480469 10.992188 18.375 17.816406 31.039063 17.8125h.042969.132812c16.246094 0 30.757812 8.753906 38.675781 22zm0 0"/></svg>